<?xml version="1.0" standalone="no"?>
<!DOCTYPE svg PUBLIC "-//W3C//DTD SVG 20010904//EN"
 "http://www.w3.org/TR/2001/REC-SVG-20010904/DTD/svg10.dtd">
<svg version="1.0" xmlns="http://www.w3.org/2000/svg"
 width="500.000000pt" height="750.000000pt" viewBox="0 0 500.000000 750.000000"
 preserveAspectRatio="xMidYMid meet">

<g transform="translate(0.000000,750.000000) scale(0.100000,-0.100000)"
fill="#000000" stroke="none">
<path d="M0 6315 c0 -756 4 -1185 10 -1185 5 0 25 8 45 17 33 16 35 19 35 67
l0 51 46 19 46 19 -5 42 -6 42 69 33 c46 22 70 40 70 51 0 9 10 19 24 23 14 3
31 12 39 20 24 24 208 106 238 106 16 0 29 -3 29 -7 0 -5 25 -9 56 -10 31 -1
67 -4 80 -7 l24 -6 0 507 1 508 44 60 c24 33 62 83 85 111 22 27 57 73 78 101
45 63 122 165 182 243 25 32 68 90 95 129 51 71 68 83 79 55 4 -9 2 -13 -5 -8
-8 5 -9 -8 -5 -42 3 -27 29 -218 56 -424 l50 -376 -2 -597 c-2 -328 -2 -597 0
-597 1 0 65 32 142 70 l140 70 0 228 0 227 123 62 122 61 60 -12 c33 -7 81
-16 108 -20 l47 -7 0 443 0 444 33 12 c19 7 55 26 82 44 l47 31 97 -17 c136
-24 151 -27 151 -36 0 -5 -34 -26 -75 -47 l-76 -39 -2 -277 c-1 -152 0 -277 2
-277 2 0 51 25 109 56 l105 55 167 -23 c135 -18 167 -26 165 -38 -1 -8 -48
-39 -103 -69 l-102 -55 0 -508 0 -508 23 -4 c54 -11 182 -26 225 -26 57 0 285
-32 292 -41 3 -3 57 -13 120 -23 63 -9 130 -19 148 -23 l32 -5 0 374 0 375 48
22 47 22 -3 49 -4 48 46 21 c45 20 46 21 46 68 l1 48 73 33 c58 27 73 38 69
52 -4 15 21 30 136 86 78 37 141 71 141 76 0 13 46 9 58 -5 6 -6 12 -28 15
-47 l4 -35 1 39 c2 37 3 38 35 32 17 -3 95 -15 172 -27 77 -12 142 -23 145
-26 6 -6 3 -8 -142 -89 -101 -56 -118 -69 -118 -90 0 -28 -10 -32 125 46 50
28 99 60 111 71 19 18 26 19 97 8 43 -6 77 -15 77 -19 0 -8 -59 -43 -260 -156
l-105 -59 -3 -42 -3 -42 174 105 c169 101 175 104 219 98 48 -7 81 -22 63 -30
-12 -5 -262 -145 -365 -205 l-65 -37 3 -46 4 -46 32 19 c17 10 108 65 201 121
l170 101 58 -5 57 -6 0 795 0 795 -2500 0 -2500 0 0 -1185z m1431 878 c13 -16
12 -17 -3 -4 -10 7 -18 15 -18 17 0 8 8 3 21 -13z m2899 -453 c0 -370 -2 -419
-15 -414 -11 5 -13 2 -9 -10 3 -9 1 -16 -5 -16 -13 0 -14 137 -4 568 5 234 9
292 20 292 11 0 13 -76 13 -420z m-820 140 c8 -4 72 -16 143 -26 70 -10 127
-21 127 -25 0 -4 -57 -38 -126 -75 l-127 -69 4 -765 4 -765 -207 -3 -208 -2 1
807 0 808 132 67 c125 63 135 66 187 61 30 -3 62 -9 70 -13z m260 -90 c0 -5
-5 -10 -11 -10 -5 0 -7 5 -4 10 3 6 8 10 11 10 2 0 4 -4 4 -10z m-1953 -267
c-3 -10 -5 -2 -5 17 0 19 2 27 5 18 2 -10 2 -26 0 -35z m-1157 -469 c0 -272
-3 -403 -10 -399 -6 4 -8 11 -5 16 4 5 -1 9 -9 9 -14 0 -16 43 -16 390 0 383
0 390 20 390 20 0 20 -7 20 -406z m1157 359 c-3 -10 -5 -2 -5 17 0 19 2 27 5
18 2 -10 2 -26 0 -35z m0 -120 c-3 -10 -5 -2 -5 17 0 19 2 27 5 18 2 -10 2
-26 0 -35z m1180 -85 c-3 -7 -5 -2 -5 12 0 14 2 19 5 13 2 -7 2 -19 0 -25z
m-1230 -125 c-3 -10 -5 -2 -5 17 0 19 2 27 5 18 2 -10 2 -26 0 -35z m3030 -15
c-3 -7 -5 -2 -5 12 0 14 2 19 5 13 2 -7 2 -19 0 -25z m-3210 -75 c-3 -10 -5
-2 -5 17 0 19 2 27 5 18 2 -10 2 -26 0 -35z m3310 -50 c-3 -10 -5 -2 -5 17 0
19 2 27 5 18 2 -10 2 -26 0 -35z"/>
<path d="M4915 5847 c-76 -41 -274 -149 -377 -206 l-48 -26 0 -1602 0 -1603
-427 0 -426 0 7 1291 7 1291 -83 -44 c-46 -25 -131 -72 -190 -104 l-108 -59 0
-1100 c0 -605 0 -1139 0 -1187 l0 -88 -315 0 -315 0 0 1144 0 1144 -32 5 c-18
4 -62 9 -98 13 -36 4 -71 11 -78 17 -14 11 -18 433 -3 439 4 2 6 150 3 331
l-5 327 -111 0 c-116 1 -114 -1 -59 38 10 7 -20 -7 -67 -31 l-85 -44 -3 -216
-2 -215 27 -6 c25 -5 291 -46 299 -46 2 0 4 -4 4 -9 0 -5 -42 -32 -92 -59 -51
-27 -146 -78 -210 -113 l-118 -64 -2 -1325 -3 -1325 -350 0 -350 0 -5 815 c-3
448 -6 815 -8 815 -1 0 -105 -1 -232 -3 l-230 -3 0 29 c0 24 5 31 25 34 14 3
25 1 25 -4 0 -5 6 -5 16 0 9 5 32 6 53 3 20 -4 52 -4 71 -1 19 3 44 3 56 -1
11 -4 27 -3 35 2 23 14 57 10 68 -8 5 -10 12 -15 16 -12 3 4 -1 14 -10 22 -18
19 -9 26 33 25 38 -1 44 -18 6 -18 -14 0 -22 -4 -19 -10 4 -6 19 -4 42 5 31
13 34 13 29 -1 -3 -8 -2 -12 4 -9 6 3 10 23 9 43 0 36 0 37 -16 15 -10 -16
-20 -20 -32 -15 -25 11 -40 9 -109 -19 -30 -12 -69 -12 -77 1 -4 6 7 8 27 5
32 -5 32 -5 5 4 -33 11 -60 4 -51 -13 3 -6 -2 -2 -10 8 -14 17 -19 16 -18 -4
0 -3 -21 -6 -46 -7 -39 -2 -43 -1 -24 7 13 6 28 8 33 4 5 -3 9 0 9 6 0 6 -14
8 -39 4 -25 -4 -41 -2 -46 5 -5 9 -10 9 -21 0 -27 -22 -44 -3 -44 51 l0 51
228 -1 227 -1 3 506 2 507 -67 -38 c-38 -20 -131 -72 -208 -114 -77 -43 -155
-86 -173 -96 l-32 -19 0 -1425 c0 -784 0 -1469 0 -1522 l0 -98 -405 0 -405 0
0 -970 0 -970 2500 0 2500 0 0 2945 c0 1620 -1 2945 -2 2945 -2 0 -39 -20 -83
-43z m-2837 -804 c-10 -2 -26 -2 -35 0 -10 3 -2 5 17 5 19 0 27 -2 18 -5z
m279 1 c-3 -3 -12 -4 -19 -1 -8 3 -5 6 6 6 11 1 17 -2 13 -5z m50 -38 c15 -14
-10 -23 -44 -15 -21 5 -58 12 -83 15 -78 10 -59 16 33 11 49 -3 91 -8 94 -11z
m0 -252 c-3 -3 -12 -4 -19 -1 -8 3 -5 6 6 6 11 1 17 -2 13 -5z m-1530 -256
c-3 -8 -6 -5 -6 6 -1 11 2 17 5 13 3 -3 4 -12 1 -19z m93 2 c0 -11 -4 -20 -9
-20 -5 0 -7 9 -4 20 3 11 7 20 9 20 2 0 4 -9 4 -20z m210 9 c0 -5 -9 -9 -20
-9 -11 0 -23 -7 -26 -15 -4 -8 -10 -15 -15 -15 -5 0 -9 7 -9 15 0 21 -20 19
-21 -2 0 -15 -2 -15 -8 2 -5 11 -7 22 -6 25 6 9 105 9 105 -1z m-260 -9 c0 -5
-5 -10 -11 -10 -5 0 -7 5 -4 10 3 6 8 10 11 10 2 0 4 -4 4 -10z m330 -15 c0
-8 -4 -15 -10 -15 -5 0 -10 7 -10 15 0 8 5 15 10 15 6 0 10 -7 10 -15z m-393
-67 c-3 -8 -6 -5 -6 6 -1 11 2 17 5 13 3 -3 4 -12 1 -19z m83 12 c0 -5 -4 -10
-10 -10 -5 0 -10 5 -10 10 0 6 5 10 10 10 6 0 10 -4 10 -10z m80 -2 c0 -5 9
-4 19 2 15 7 211 9 229 1 11 -5 -1 -22 -13 -17 -8 3 -15 1 -15 -5 0 -6 -4 -8
-9 -5 -16 10 -91 16 -91 7 0 -6 -12 -12 -27 -14 -16 -3 -8 -4 17 -4 38 1 46
-2 57 -23 10 -21 10 -26 -5 -34 -9 -5 -20 -14 -23 -19 -4 -5 -10 4 -14 22 -8
36 -24 42 -26 9 -1 -17 -2 -19 -6 -5 -2 9 -11 17 -19 17 -8 0 -14 7 -14 15 0
16 -16 21 -22 6 -1 -5 -9 -3 -16 5 -11 12 -10 14 5 14 10 0 24 4 31 8 7 5 -16
8 -53 6 -43 -1 -65 2 -65 10 0 6 14 11 30 12 17 1 30 -3 30 -8z m-39 -28 c21
0 29 -5 28 -17 0 -11 -3 -13 -6 -5 -8 20 -23 14 -24 -10 l0 -23 -11 23 c-14
27 -32 29 -25 2 3 -11 0 -20 -5 -20 -6 0 -19 -9 -28 -20 -11 -13 -21 -17 -25
-11 -3 6 3 18 15 28 11 10 20 28 20 41 0 18 4 23 16 18 9 -3 29 -6 45 -6z
m-81 -7 c0 -1 -3 -9 -6 -18 -5 -13 -9 -14 -15 -3 -8 11 -11 11 -18 -1 -10 -16
-31 -6 -31 15 0 10 10 13 35 11 19 -1 35 -3 35 -4z m370 -8 c0 -20 -28 -31
-42 -17 -8 8 -5 9 11 5 15 -4 21 -1 21 11 0 9 2 16 5 16 3 0 5 -7 5 -15z
m-177 -75 c-3 -11 -7 -20 -9 -20 -2 0 -4 9 -4 20 0 11 4 20 9 20 5 0 7 -9 4
-20z m144 -15 c-10 -11 -13 -10 -15 1 -5 20 -22 17 -22 -3 0 -15 -2 -15 -9 -4
-14 22 9 41 36 28 17 -7 19 -12 10 -22z m-240 -7 c-3 -8 -6 -5 -6 6 -1 11 2
17 5 13 3 -3 4 -12 1 -19z m-92 -169 c3 -4 -12 -7 -35 -7 -22 0 -40 2 -40 6 0
9 66 9 75 1z m-191 -2897 c3 -5 -10 -16 -29 -25 -40 -19 -51 -38 -54 -94 -6
-104 96 -213 201 -213 25 0 30 16 11 31 -21 18 -52 87 -53 116 0 40 22 73 54
81 40 11 59 6 88 -25 19 -20 23 -35 23 -86 0 -34 -4 -69 -8 -78 -6 -12 1 -22
28 -38 20 -11 37 -21 39 -21 2 0 8 18 15 39 17 58 96 171 144 208 113 84 227
56 227 -57 0 -104 -164 -242 -291 -244 l-48 -1 -6 -51 c-10 -72 8 -130 48
-154 43 -27 64 -25 133 10 53 28 112 85 178 175 10 14 18 17 25 9 29 -27 -153
-213 -229 -234 -79 -22 -141 -4 -186 55 -26 35 -29 45 -29 121 l0 83 -49 25
c-36 18 -54 22 -67 15 -30 -16 -131 -10 -175 10 -72 33 -124 117 -124 202 0
45 36 116 68 134 31 16 58 19 66 7z m2809 -43 c82 -22 131 -95 129 -191 -2
-115 -95 -188 -237 -188 -49 0 -52 -2 -68 -35 -9 -20 -17 -39 -17 -43 0 -5 25
-18 54 -31 30 -12 106 -53 169 -90 82 -49 131 -71 175 -80 58 -11 63 -11 92
11 25 18 44 22 98 23 37 0 79 -3 94 -8 26 -7 29 -4 72 85 25 51 44 93 42 95
-9 9 -60 -20 -83 -47 -53 -64 -134 -80 -178 -35 -14 13 -25 34 -25 47 0 20 -3
18 -25 -14 -40 -59 -90 -75 -127 -41 -27 24 -22 63 20 147 32 63 36 76 23 81
-10 4 -20 -1 -26 -11 -18 -31 -57 -74 -66 -74 -16 0 -9 24 20 69 21 31 28 52
25 71 -7 30 15 54 40 44 12 -5 16 -16 14 -37 -3 -27 1 -32 29 -39 18 -5 35
-13 38 -18 3 -6 -12 -47 -34 -91 -43 -85 -50 -119 -27 -119 18 0 47 40 107
144 54 95 92 126 156 126 34 0 50 -6 70 -26 23 -23 25 -31 21 -90 l-4 -65 37
38 c24 24 46 61 59 101 20 57 24 62 51 62 16 0 29 -1 29 -3 0 -13 -119 -297
-148 -352 l-37 -70 38 -38 c31 -31 41 -36 57 -27 30 16 65 12 94 -11 35 -28
36 -86 2 -126 -23 -27 -28 -28 -118 -28 -77 1 -106 5 -168 29 -41 15 -96 31
-121 35 -48 7 -99 34 -99 51 0 6 -34 27 -75 47 -78 39 -95 40 -177 8 -13 -5
-18 -2 -18 9 0 10 17 24 42 34 l41 18 -99 56 c-54 31 -118 65 -140 76 l-42 21
-26 -39 c-37 -56 -88 -92 -141 -98 -57 -6 -90 15 -106 67 -10 33 -9 45 7 78
26 52 80 70 171 56 l64 -9 27 45 c20 35 23 46 12 49 -20 7 -60 53 -60 68 0 23
20 16 52 -18 l30 -32 34 77 c45 104 79 154 117 177 38 24 77 26 77 5 0 -8 -6
-15 -14 -15 -24 0 -73 -66 -115 -155 -23 -47 -41 -90 -41 -97 0 -17 86 -1 132
24 49 28 78 81 78 144 0 59 -25 111 -63 131 -46 23 -156 14 -234 -21 l-61 -28
15 -36 c21 -51 9 -117 -27 -154 -34 -33 -67 -36 -104 -7 -21 17 -26 29 -26 65
0 51 11 76 48 117 l26 27 -48 0 c-56 0 -78 -10 -129 -59 -80 -76 -82 -196 -4
-234 20 -10 37 -23 37 -27 0 -20 -24 -21 -61 -5 -54 25 -94 104 -84 167 20
119 110 198 227 198 20 0 48 -4 62 -10 19 -7 36 -4 73 12 98 44 202 58 276 37z
m765 -141 c20 -20 14 -47 -12 -54 -14 -3 -30 -3 -35 1 -12 7 -15 48 -4 58 10
11 38 8 51 -5z m672 7 c0 -3 -9 -23 -20 -45 -24 -47 -24 -50 -5 -50 8 0 15 -7
15 -15 0 -9 -9 -15 -25 -15 -27 0 -42 -23 -89 -139 -26 -65 -33 -115 -17 -125
12 -8 75 64 100 113 23 44 36 55 51 46 15 -9 -37 -101 -86 -153 -36 -37 -47
-43 -75 -40 -27 2 -37 10 -51 38 -10 19 -18 30 -18 24 0 -21 -75 -64 -111 -64
-45 0 -75 22 -89 66 l-12 36 -30 -36 c-36 -44 -76 -66 -120 -66 -76 0 -112 68
-84 162 37 127 135 201 204 152 24 -17 30 -61 11 -96 -14 -26 -68 -48 -118
-48 -43 0 -51 -10 -51 -65 0 -44 29 -80 58 -71 35 12 77 52 113 109 18 28 36
54 39 57 3 3 17 22 29 44 40 64 110 93 162 66 32 -18 21 -120 -14 -120 -31 1
-39 16 -24 47 20 39 8 62 -22 41 -76 -53 -115 -177 -72 -229 l19 -24 36 19
c39 21 98 100 144 194 29 58 30 62 11 62 -10 0 -19 7 -19 15 0 9 9 15 25 15
20 0 31 11 53 50 22 41 32 50 55 50 15 0 27 -2 27 -5z m-2802 -122 c-2 -21 3
-28 29 -37 17 -6 34 -14 38 -17 3 -3 -13 -42 -35 -85 -42 -82 -53 -138 -25
-128 20 8 107 141 146 221 22 47 36 64 56 69 30 8 56 -5 61 -30 4 -21 -27 -33
-39 -15 -16 25 -10 -58 8 -103 9 -24 19 -47 23 -51 4 -4 24 20 46 54 57 91
103 136 147 144 50 10 87 -14 87 -56 0 -63 -45 -99 -123 -99 -38 0 -46 -3 -51
-22 -10 -39 -7 -73 10 -97 31 -44 85 -12 155 92 22 31 44 57 49 57 29 0 -9
-78 -69 -143 -56 -62 -133 -76 -176 -32 -14 13 -25 33 -25 43 0 34 -11 31 -59
-19 -41 -43 -52 -49 -88 -49 -48 0 -66 18 -66 62 l0 32 -16 -25 c-30 -45 -63
-69 -97 -69 -64 0 -71 65 -19 167 31 59 33 76 10 74 -8 -1 -65 -77 -108 -144
-20 -31 -45 -65 -57 -77 -27 -27 -76 -27 -90 0 l-11 21 -26 -21 c-14 -11 -41
-20 -59 -20 -28 0 -35 5 -40 25 -3 14 -4 38 -2 54 4 28 3 28 -23 17 -15 -6
-37 -24 -49 -39 -29 -37 -71 -57 -118 -57 -110 0 -121 158 -18 266 39 40 47
44 90 44 84 0 128 -71 96 -154 -26 -69 69 32 114 122 23 45 30 52 56 52 17 0
30 -2 30 -4 0 -3 -30 -66 -67 -141 -47 -96 -63 -139 -56 -146 15 -15 53 34
134 173 55 95 70 114 92 116 15 2 27 1 27 -3 0 -3 -23 -51 -51 -108 -28 -56
-57 -119 -65 -139 -22 -65 3 -53 53 24 26 40 63 95 83 121 29 37 35 54 32 78
-5 36 13 53 40 38 12 -7 18 -19 16 -36z"/>
<path d="M1153 4365 c-3 -9 -3 -18 0 -21 9 -9 27 6 27 22 0 19 -19 18 -27 -1z"/>
<path d="M1253 1110 c-62 -28 -114 -97 -167 -224 l-16 -38 47 7 c69 10 134 47
187 106 44 48 51 67 46 114 -5 47 -42 60 -97 35z"/>
<path d="M860 1075 c-17 -21 -5 -79 25 -112 29 -35 40 -25 40 37 0 33 -6 54
-19 69 -23 25 -30 26 -46 6z"/>
<path d="M3190 1035 c-30 -32 -40 -112 -15 -121 29 -12 55 30 55 87 0 58 -10
66 -40 34z"/>
<path d="M3972 875 c-64 -54 -94 -172 -53 -209 17 -16 22 -16 48 -3 15 8 36
24 46 35 18 19 18 22 2 46 -23 35 -13 71 25 88 35 15 35 16 14 46 -20 29 -45
28 -82 -3z"/>
<path d="M4041 792 c-6 -11 -6 -24 -1 -32 7 -11 11 -8 19 13 13 35 13 37 1 37
-5 0 -14 -8 -19 -18z"/>
<path d="M3120 709 c-18 -4 -40 -15 -47 -25 -19 -26 -16 -71 7 -94 37 -37 71
-23 130 52 23 28 39 52 37 54 -10 11 -96 19 -127 13z"/>
<path d="M3885 520 c-38 -8 -77 -29 -55 -30 8 0 39 -12 69 -25 l54 -26 34 32
c18 18 31 34 29 36 -9 9 -104 18 -131 13z"/>
<path d="M4032 450 l-32 -39 34 -6 c19 -4 42 -5 53 -3 27 5 27 40 1 65 l-23
22 -33 -39z"/>
<path d="M3806 459 c8 -13 83 -48 104 -49 22 0 0 15 -58 38 -29 12 -50 16 -46
11z"/>
<path d="M4188 415 c-6 -14 -18 -25 -25 -25 -8 0 -21 -7 -29 -15 -20 -19 -61
-19 -119 1 -26 8 -52 13 -58 11 -25 -8 159 -60 216 -61 50 -1 62 3 78 23 24
29 24 53 1 74 -26 24 -51 21 -64 -8z"/>
<path d="M4409 881 c-47 -51 -49 -63 -8 -51 40 12 69 38 69 61 0 34 -22 31
-61 -10z"/>
<path d="M2602 893 c-11 -10 -28 -31 -38 -48 -18 -28 -18 -29 -1 -22 10 4 24
7 31 7 20 0 56 39 56 60 0 25 -21 26 -48 3z"/>
<path d="M1615 885 c-38 -19 -70 -67 -87 -128 -11 -41 -10 -52 3 -75 21 -38
40 -38 87 2 35 29 39 36 27 46 -8 7 -15 28 -15 47 0 27 6 37 30 51 35 20 37
32 12 55 -22 20 -20 20 -57 2z"/>
<path d="M2306 796 c-41 -67 -48 -80 -35 -68 15 14 59 16 59 2 0 -5 -10 -18
-21 -29 -23 -21 -20 -51 5 -51 19 0 46 38 46 66 0 12 -9 41 -19 64 l-19 42
-16 -26z"/>
<path d="M1671 797 c-7 -9 -10 -25 -6 -34 6 -17 7 -17 16 0 6 10 9 25 7 34 -3
15 -4 15 -17 0z"/>
<path d="M642 5560 c0 -14 2 -19 5 -12 2 6 2 18 0 25 -3 6 -5 1 -5 -13z"/>
<path d="M860 5480 c-58 -33 -108 -60 -112 -60 -5 0 -8 -14 -8 -30 l0 -31 43
29 c23 16 75 48 115 71 50 29 72 48 72 61 0 11 -1 20 -2 20 -2 0 -50 -27 -108
-60z"/>
<path d="M1010 5414 c-47 -25 -120 -66 -162 -91 -73 -42 -78 -47 -78 -79 0
-19 2 -34 5 -34 3 0 50 26 103 58 53 32 127 75 165 97 57 34 67 43 67 67 0 15
-3 28 -7 28 -5 0 -46 -21 -93 -46z"/>
<path d="M3752 5323 l3 -78 38 -6 37 -6 0 77 c0 72 -2 78 -22 84 -57 15 -59
12 -56 -71z"/>
<path d="M3860 5307 c0 -83 -3 -79 73 -92 l37 -6 0 81 c0 69 -2 80 -17 80 -10
0 -35 3 -55 6 l-38 7 0 -76z"/>
<path d="M1030 5271 c-251 -141 -236 -129 -230 -177 l5 -42 197 117 197 116 1
38 c0 20 -3 37 -7 36 -5 0 -78 -40 -163 -88z"/>
<path d="M4000 5286 c0 -41 4 -77 8 -80 5 -3 32 -8 60 -12 l52 -7 0 72 c0 79
-1 80 -82 95 l-38 7 0 -75z"/>
<path d="M4150 5257 l0 -75 47 -10 c26 -6 51 -8 55 -6 10 7 10 141 1 147 -5 3
-29 8 -55 12 l-48 7 0 -75z"/>
<path d="M4277 5304 c-4 -4 -7 -38 -7 -75 0 -75 0 -75 75 -81 l30 -3 3 72 c3
78 6 74 -63 88 -17 3 -34 3 -38 -1z"/>
<path d="M3752 5053 l3 -78 38 -6 37 -6 0 78 c0 82 -4 89 -56 89 -25 0 -25 -1
-22 -77z"/>
<path d="M3860 5036 c0 -82 -3 -78 73 -91 l37 -6 0 79 0 79 -37 7 c-75 12 -73
14 -73 -68z"/>
<path d="M4000 5016 c0 -41 4 -77 8 -80 5 -3 32 -8 60 -12 l52 -7 0 72 c0 79
-1 80 -82 95 l-38 7 0 -75z"/>
<path d="M4150 4987 l0 -76 38 -6 c71 -12 67 -16 70 59 2 38 -1 72 -5 77 -4 4
-29 10 -55 14 l-48 7 0 -75z"/>
<path d="M4270 4966 l0 -75 38 -6 c71 -12 67 -16 70 59 2 38 -1 72 -5 76 -4 4
-29 11 -55 14 l-48 7 0 -75z"/>
<path d="M110 4716 c0 -79 5 -86 56 -86 23 0 24 3 24 70 0 48 -4 72 -12 74 -7
3 -25 7 -40 10 l-28 6 0 -74z"/>
<path d="M217 4763 c-4 -3 -7 -35 -7 -70 0 -59 2 -64 26 -73 14 -6 39 -10 55
-10 l29 0 0 69 0 69 -32 7 c-18 4 -40 8 -49 11 -8 2 -18 1 -22 -3z"/>
<path d="M350 4672 l0 -70 47 -10 c26 -6 51 -8 55 -6 11 7 10 132 -1 138 -5 4
-30 9 -55 12 l-46 7 0 -71z"/>
<path d="M490 4651 c0 -38 3 -72 8 -74 4 -3 26 -8 50 -12 l42 -7 0 71 c0 77 1
75 -62 86 l-38 6 0 -70z"/>
<path d="M609 4688 c-3 -35 -1 -129 2 -132 2 -2 23 -7 47 -11 l42 -7 0 71 c0
38 -3 72 -7 74 -5 2 -25 7 -45 11 -28 5 -38 3 -39 -6z"/>
<path d="M3920 4476 l0 -74 33 -7 c17 -4 40 -9 50 -11 15 -5 17 3 17 74 l0 80
-31 6 c-69 13 -69 13 -69 -68z"/>
<path d="M110 4456 l0 -73 31 -7 c17 -3 35 -3 40 0 5 3 9 34 9 69 0 68 -12 85
-59 85 -19 0 -21 -6 -21 -74z"/>
<path d="M4040 4456 c0 -74 0 -76 28 -81 73 -16 71 -16 78 9 6 23 0 123 -7
131 -2 2 -25 6 -51 10 l-48 7 0 -76z"/>
<path d="M218 4504 c-10 -9 -10 -115 0 -131 4 -6 28 -14 55 -18 l47 -7 0 70
c0 39 -4 73 -8 76 -17 10 -87 18 -94 10z"/>
<path d="M350 4415 l0 -74 44 -6 c25 -4 49 -4 55 0 6 3 11 33 11 65 0 66 -6
73 -72 83 l-38 6 0 -74z"/>
<path d="M490 4391 c0 -76 4 -81 66 -81 l34 0 0 69 0 68 -37 7 c-64 10 -63 12
-63 -63z"/>
<path d="M607 4433 c-4 -3 -7 -33 -7 -65 0 -54 2 -59 26 -68 14 -6 36 -10 50
-10 23 0 24 3 24 69 l0 69 -31 6 c-40 8 -54 8 -62 -1z"/>
<path d="M1110 4150 c6 -11 15 -20 19 -20 5 0 7 9 4 20 -3 11 -12 20 -20 20
-11 0 -11 -4 -3 -20z"/>
<path d="M270 3911 c0 -38 3 -72 8 -74 4 -3 26 -8 50 -12 l42 -7 0 71 c0 38
-3 72 -7 74 -5 3 -27 8 -50 12 l-43 7 0 -71z"/>
<path d="M380 3891 c0 -77 -1 -75 63 -86 l37 -6 0 76 c0 67 -2 75 -19 75 -10
0 -33 3 -50 6 l-31 7 0 -72z"/>
</g>
</svg>
